<svg width="500" height="27" viewBox="0 0 500 27" fill="none" xmlns="http://www.w3.org/2000/svg">
<path d="M370.358 19H367.831L367.846 18.458H370.358C371.125 18.458 371.798 18.2798 372.379 17.9233C372.965 17.5669 373.424 17.0737 373.756 16.4438C374.088 15.8091 374.254 15.0791 374.254 14.2539V13.0601C374.254 12.4448 374.159 11.8809 373.969 11.3682C373.778 10.8555 373.51 10.4136 373.163 10.0425C372.821 9.67139 372.414 9.38574 371.94 9.18555C371.466 8.98047 370.949 8.87793 370.387 8.87793H367.787V8.33594H370.387C371.027 8.33594 371.618 8.45068 372.16 8.68018C372.707 8.90479 373.18 9.22705 373.581 9.64697C373.981 10.062 374.291 10.5625 374.511 11.1484C374.735 11.7295 374.848 12.374 374.848 13.082V14.2539C374.848 14.9619 374.735 15.6089 374.511 16.1948C374.291 16.7759 373.979 17.2764 373.573 17.6963C373.173 18.1113 372.699 18.4336 372.152 18.6631C371.61 18.8877 371.012 19 370.358 19ZM368.014 8.33594V19H367.421V8.33594H368.014ZM381.959 17.5425V13.4482C381.959 13.0332 381.872 12.6768 381.696 12.3789C381.52 12.0811 381.264 11.854 380.927 11.6978C380.59 11.5366 380.177 11.4561 379.689 11.4561C379.235 11.4561 378.827 11.5366 378.466 11.6978C378.109 11.854 377.829 12.0688 377.624 12.3423C377.418 12.6157 377.316 12.9209 377.316 13.2578L376.73 13.2505C376.73 12.9478 376.801 12.6572 376.942 12.3789C377.089 12.1006 377.294 11.854 377.558 11.6392C377.826 11.4194 378.141 11.2461 378.502 11.1191C378.869 10.9922 379.269 10.9287 379.704 10.9287C380.26 10.9287 380.751 11.0239 381.176 11.2144C381.605 11.3999 381.94 11.6807 382.179 12.0566C382.418 12.4326 382.538 12.9014 382.538 13.4629V17.374C382.538 17.6572 382.558 17.9429 382.597 18.231C382.636 18.519 382.689 18.751 382.758 18.9268V19H382.121C382.067 18.8145 382.025 18.5874 381.996 18.3188C381.972 18.0503 381.959 17.7915 381.959 17.5425ZM382.15 14.5029L382.165 15.0083H380.231C379.743 15.0083 379.306 15.0547 378.92 15.1475C378.534 15.2402 378.207 15.3721 377.938 15.543C377.67 15.7139 377.465 15.9165 377.323 16.1509C377.182 16.3853 377.111 16.6489 377.111 16.9419C377.111 17.2446 377.191 17.5229 377.353 17.7769C377.514 18.0308 377.741 18.2334 378.034 18.3848C378.327 18.5312 378.666 18.6045 379.052 18.6045C379.579 18.6045 380.045 18.5142 380.451 18.3335C380.861 18.1479 381.205 17.8989 381.483 17.5864C381.762 17.269 381.964 16.9028 382.091 16.4878L382.348 16.9126C382.265 17.1714 382.135 17.4326 381.959 17.6963C381.784 17.96 381.557 18.2017 381.278 18.4214C381 18.6362 380.673 18.812 380.297 18.9487C379.921 19.0806 379.494 19.1465 379.015 19.1465C378.512 19.1465 378.073 19.0537 377.697 18.8682C377.326 18.6777 377.038 18.4189 376.833 18.0918C376.627 17.7598 376.525 17.3813 376.525 16.9565C376.525 16.5903 376.608 16.2559 376.774 15.9531C376.94 15.6504 377.179 15.3916 377.492 15.1768C377.809 14.957 378.192 14.791 378.642 14.6787C379.096 14.5615 379.606 14.5029 380.172 14.5029H382.15ZM385.585 12.5986V22.0469H384.999V11.0752H385.563L385.585 12.5986ZM391.195 14.957V15.1108C391.195 15.7114 391.127 16.2583 390.99 16.7515C390.858 17.2446 390.663 17.6694 390.404 18.0259C390.15 18.3823 389.838 18.6582 389.467 18.8535C389.096 19.0488 388.673 19.1465 388.2 19.1465C387.746 19.1465 387.338 19.0806 386.977 18.9487C386.615 18.812 386.303 18.6216 386.039 18.3774C385.775 18.1333 385.563 17.855 385.402 17.5425C385.241 17.2251 385.128 16.8857 385.065 16.5244V13.7705C385.148 13.3555 385.272 12.9771 385.438 12.6353C385.609 12.2886 385.822 11.9883 386.076 11.7344C386.334 11.4756 386.64 11.2778 386.991 11.1411C387.343 10.9995 387.741 10.9287 388.185 10.9287C388.659 10.9287 389.081 11.0239 389.452 11.2144C389.828 11.3999 390.146 11.6685 390.404 12.02C390.663 12.3667 390.858 12.7891 390.99 13.2871C391.127 13.7803 391.195 14.3369 391.195 14.957ZM390.602 15.1108V14.957C390.602 14.459 390.551 13.9976 390.448 13.5728C390.351 13.1479 390.199 12.7793 389.994 12.4668C389.789 12.1543 389.53 11.9102 389.218 11.7344C388.905 11.5586 388.537 11.4707 388.112 11.4707C387.648 11.4707 387.255 11.5488 386.933 11.7051C386.61 11.8564 386.344 12.0542 386.134 12.2983C385.929 12.5425 385.771 12.8062 385.658 13.0894C385.546 13.3677 385.463 13.6313 385.409 13.8804V16.4805C385.497 16.8711 385.653 17.2275 385.878 17.5498C386.103 17.8721 386.4 18.1309 386.771 18.3262C387.147 18.5166 387.599 18.6118 388.126 18.6118C388.551 18.6118 388.917 18.5239 389.225 18.3481C389.533 18.1724 389.789 17.9282 389.994 17.6157C390.199 17.3032 390.351 16.9346 390.448 16.5098C390.551 16.0801 390.602 15.6138 390.602 15.1108ZM398.19 17.5425V13.4482C398.19 13.0332 398.102 12.6768 397.926 12.3789C397.75 12.0811 397.494 11.854 397.157 11.6978C396.82 11.5366 396.408 11.4561 395.919 11.4561C395.465 11.4561 395.058 11.5366 394.696 11.6978C394.34 11.854 394.059 12.0688 393.854 12.3423C393.649 12.6157 393.546 12.9209 393.546 13.2578L392.96 13.2505C392.96 12.9478 393.031 12.6572 393.173 12.3789C393.319 12.1006 393.524 11.854 393.788 11.6392C394.057 11.4194 394.372 11.2461 394.733 11.1191C395.099 10.9922 395.5 10.9287 395.934 10.9287C396.491 10.9287 396.981 11.0239 397.406 11.2144C397.836 11.3999 398.17 11.6807 398.41 12.0566C398.649 12.4326 398.769 12.9014 398.769 13.4629V17.374C398.769 17.6572 398.788 17.9429 398.827 18.231C398.866 18.519 398.92 18.751 398.988 18.9268V19H398.351C398.297 18.8145 398.256 18.5874 398.227 18.3188C398.202 18.0503 398.19 17.7915 398.19 17.5425ZM398.38 14.5029L398.395 15.0083H396.461C395.973 15.0083 395.536 15.0547 395.15 15.1475C394.765 15.2402 394.438 15.3721 394.169 15.543C393.9 15.7139 393.695 15.9165 393.554 16.1509C393.412 16.3853 393.341 16.6489 393.341 16.9419C393.341 17.2446 393.422 17.5229 393.583 17.7769C393.744 18.0308 393.971 18.2334 394.264 18.3848C394.557 18.5312 394.896 18.6045 395.282 18.6045C395.81 18.6045 396.276 18.5142 396.681 18.3335C397.091 18.1479 397.436 17.8989 397.714 17.5864C397.992 17.269 398.195 16.9028 398.322 16.4878L398.578 16.9126C398.495 17.1714 398.366 17.4326 398.19 17.6963C398.014 17.96 397.787 18.2017 397.509 18.4214C397.23 18.6362 396.903 18.812 396.527 18.9487C396.151 19.0806 395.724 19.1465 395.246 19.1465C394.743 19.1465 394.303 19.0537 393.927 18.8682C393.556 18.6777 393.268 18.4189 393.063 18.0918C392.858 17.7598 392.755 17.3813 392.755 16.9565C392.755 16.5903 392.838 16.2559 393.004 15.9531C393.17 15.6504 393.41 15.3916 393.722 15.1768C394.04 14.957 394.423 14.791 394.872 14.6787C395.326 14.5615 395.836 14.5029 396.403 14.5029H398.38ZM404.057 11.0752V11.6025H400.263V11.0752H404.057ZM401.728 8.98047H402.313V17.0884C402.313 17.5132 402.365 17.8354 402.467 18.0552C402.575 18.27 402.714 18.4165 402.885 18.4946C403.061 18.5679 403.249 18.6045 403.449 18.6045C403.59 18.6045 403.72 18.5972 403.837 18.5825C403.959 18.5679 404.081 18.5508 404.203 18.5312L404.254 19.0439C404.147 19.0781 404.008 19.1025 403.837 19.1172C403.666 19.1367 403.515 19.1465 403.383 19.1465C403.051 19.1465 402.76 19.0854 402.511 18.9634C402.262 18.8413 402.069 18.6313 401.933 18.3335C401.796 18.0308 401.728 17.6157 401.728 17.0884V8.98047ZM410.209 12.5986V22.0469H409.623V11.0752H410.187L410.209 12.5986ZM415.819 14.957V15.1108C415.819 15.7114 415.751 16.2583 415.614 16.7515C415.482 17.2446 415.287 17.6694 415.028 18.0259C414.774 18.3823 414.462 18.6582 414.091 18.8535C413.72 19.0488 413.297 19.1465 412.824 19.1465C412.37 19.1465 411.962 19.0806 411.601 18.9487C411.239 18.812 410.927 18.6216 410.663 18.3774C410.399 18.1333 410.187 17.855 410.026 17.5425C409.865 17.2251 409.752 16.8857 409.689 16.5244V13.7705C409.772 13.3555 409.896 12.9771 410.062 12.6353C410.233 12.2886 410.446 11.9883 410.7 11.7344C410.958 11.4756 411.264 11.2778 411.615 11.1411C411.967 10.9995 412.365 10.9287 412.809 10.9287C413.283 10.9287 413.705 11.0239 414.076 11.2144C414.452 11.3999 414.77 11.6685 415.028 12.02C415.287 12.3667 415.482 12.7891 415.614 13.2871C415.751 13.7803 415.819 14.3369 415.819 14.957ZM415.226 15.1108V14.957C415.226 14.459 415.175 13.9976 415.072 13.5728C414.975 13.1479 414.823 12.7793 414.618 12.4668C414.413 12.1543 414.154 11.9102 413.842 11.7344C413.529 11.5586 413.161 11.4707 412.736 11.4707C412.272 11.4707 411.879 11.5488 411.557 11.7051C411.234 11.8564 410.968 12.0542 410.758 12.2983C410.553 12.5425 410.395 12.8062 410.282 13.0894C410.17 13.3677 410.087 13.6313 410.033 13.8804V16.4805C410.121 16.8711 410.277 17.2275 410.502 17.5498C410.727 17.8721 411.024 18.1309 411.396 18.3262C411.771 18.5166 412.223 18.6118 412.75 18.6118C413.175 18.6118 413.542 18.5239 413.849 18.3481C414.157 18.1724 414.413 17.9282 414.618 17.6157C414.823 17.3032 414.975 16.9346 415.072 16.5098C415.175 16.0801 415.226 15.6138 415.226 15.1108ZM420.836 19.1465C420.338 19.1465 419.877 19.0513 419.452 18.8608C419.027 18.6655 418.656 18.3945 418.339 18.0479C418.021 17.6963 417.772 17.2812 417.592 16.8027C417.416 16.3242 417.328 15.7993 417.328 15.228V14.9058C417.328 14.3149 417.416 13.7778 417.592 13.2944C417.772 12.8062 418.017 12.3862 418.324 12.0347C418.632 11.6782 418.986 11.4048 419.386 11.2144C419.792 11.0239 420.224 10.9287 420.683 10.9287C421.146 10.9287 421.566 11.0142 421.942 11.1851C422.318 11.356 422.641 11.5952 422.909 11.9028C423.178 12.2104 423.383 12.5767 423.524 13.0015C423.666 13.4263 423.737 13.895 423.737 14.4077V14.8984H417.694V14.3638H423.158V14.2686C423.153 13.7705 423.051 13.3091 422.851 12.8843C422.655 12.4595 422.375 12.1177 422.008 11.8589C421.642 11.5952 421.2 11.4634 420.683 11.4634C420.268 11.4634 419.889 11.5513 419.547 11.7271C419.21 11.9028 418.92 12.147 418.676 12.4595C418.432 12.7671 418.244 13.1309 418.112 13.5508C417.98 13.9658 417.914 14.4175 417.914 14.9058V15.228C417.914 15.6968 417.987 16.1362 418.134 16.5464C418.28 16.9565 418.485 17.3179 418.749 17.6304C419.013 17.938 419.323 18.1797 419.679 18.3555C420.036 18.5312 420.426 18.6191 420.851 18.6191C421.31 18.6191 421.73 18.5386 422.111 18.3774C422.492 18.2163 422.838 17.9331 423.151 17.5278L423.532 17.8135C423.356 18.0674 423.144 18.2944 422.895 18.4946C422.646 18.6948 422.35 18.8535 422.008 18.9707C421.671 19.0879 421.281 19.1465 420.836 19.1465ZM426.125 12.7671V19H425.546V11.0752H426.117L426.125 12.7671ZM426.015 14.4297L425.729 14.0928C425.773 13.6729 425.875 13.2725 426.037 12.8916C426.203 12.5107 426.42 12.1738 426.688 11.8809C426.962 11.5879 427.279 11.356 427.641 11.1851C428.007 11.0142 428.41 10.9287 428.849 10.9287C429.245 10.9287 429.599 10.9849 429.911 11.0972C430.224 11.2046 430.487 11.3755 430.702 11.6099C430.922 11.8442 431.088 12.147 431.2 12.5181C431.312 12.8843 431.369 13.3311 431.369 13.8584V19H430.79V13.8584C430.79 13.2334 430.705 12.75 430.534 12.4082C430.363 12.0615 430.124 11.8174 429.816 11.6758C429.513 11.5342 429.159 11.4634 428.754 11.4634C428.285 11.4634 427.88 11.5684 427.538 11.7783C427.201 11.9834 426.923 12.2446 426.703 12.562C426.483 12.8745 426.315 13.1992 426.198 13.5361C426.085 13.873 426.024 14.1709 426.015 14.4297ZM439.044 11.0752H439.608V18.8755C439.608 19.5542 439.484 20.1401 439.235 20.6333C438.986 21.1313 438.632 21.5122 438.173 21.7759C437.719 22.0444 437.174 22.1787 436.54 22.1787C436.178 22.1787 435.832 22.125 435.5 22.0176C435.172 21.9102 434.87 21.7539 434.591 21.5488C434.318 21.3486 434.081 21.1118 433.881 20.8384L434.24 20.4722C434.552 20.8579 434.892 21.1509 435.258 21.3511C435.629 21.5513 436.046 21.6514 436.51 21.6514C437.057 21.6514 437.516 21.5391 437.887 21.3145C438.258 21.0898 438.539 20.77 438.729 20.355C438.92 19.9448 439.015 19.4565 439.015 18.8901V12.8184L439.044 11.0752ZM433.412 15.1108V14.957C433.412 14.3369 433.48 13.7803 433.617 13.2871C433.754 12.7891 433.952 12.3667 434.21 12.02C434.469 11.6685 434.784 11.3999 435.155 11.2144C435.531 11.0239 435.956 10.9287 436.43 10.9287C436.874 10.9287 437.267 10.9995 437.609 11.1411C437.956 11.2778 438.256 11.4756 438.51 11.7344C438.769 11.9883 438.979 12.2886 439.14 12.6353C439.306 12.9771 439.43 13.3555 439.513 13.7705V16.5024C439.45 16.8687 439.34 17.2129 439.184 17.5352C439.027 17.8525 438.82 18.1333 438.561 18.3774C438.302 18.6167 437.995 18.8047 437.638 18.9414C437.282 19.0781 436.874 19.1465 436.415 19.1465C435.946 19.1465 435.526 19.0488 435.155 18.8535C434.784 18.6582 434.469 18.3823 434.21 18.0259C433.952 17.6694 433.754 17.2446 433.617 16.7515C433.48 16.2583 433.412 15.7114 433.412 15.1108ZM434.005 14.957V15.1108C434.005 15.6138 434.054 16.0776 434.152 16.5024C434.254 16.9272 434.406 17.2959 434.606 17.6084C434.811 17.9209 435.07 18.165 435.382 18.3408C435.695 18.5166 436.059 18.6045 436.474 18.6045C437.011 18.6045 437.462 18.5068 437.829 18.3115C438.195 18.1162 438.488 17.8574 438.708 17.5352C438.927 17.2129 439.081 16.8564 439.169 16.4658V13.8804C439.115 13.6313 439.032 13.3677 438.92 13.0894C438.808 12.8062 438.649 12.5425 438.444 12.2983C438.244 12.0542 437.985 11.8564 437.667 11.7051C437.35 11.5488 436.957 11.4707 436.488 11.4707C436.068 11.4707 435.7 11.5586 435.382 11.7344C435.07 11.9102 434.811 12.1543 434.606 12.4668C434.406 12.7793 434.254 13.1479 434.152 13.5728C434.054 13.9976 434.005 14.459 434.005 14.957ZM446.955 17.5425V13.4482C446.955 13.0332 446.867 12.6768 446.691 12.3789C446.515 12.0811 446.259 11.854 445.922 11.6978C445.585 11.5366 445.172 11.4561 444.684 11.4561C444.23 11.4561 443.822 11.5366 443.461 11.6978C443.104 11.854 442.824 12.0688 442.619 12.3423C442.414 12.6157 442.311 12.9209 442.311 13.2578L441.725 13.2505C441.725 12.9478 441.796 12.6572 441.938 12.3789C442.084 12.1006 442.289 11.854 442.553 11.6392C442.821 11.4194 443.136 11.2461 443.498 11.1191C443.864 10.9922 444.264 10.9287 444.699 10.9287C445.255 10.9287 445.746 11.0239 446.171 11.2144C446.601 11.3999 446.935 11.6807 447.174 12.0566C447.414 12.4326 447.533 12.9014 447.533 13.4629V17.374C447.533 17.6572 447.553 17.9429 447.592 18.231C447.631 18.519 447.685 18.751 447.753 18.9268V19H447.116C447.062 18.8145 447.021 18.5874 446.991 18.3188C446.967 18.0503 446.955 17.7915 446.955 17.5425ZM447.145 14.5029L447.16 15.0083H445.226C444.738 15.0083 444.301 15.0547 443.915 15.1475C443.529 15.2402 443.202 15.3721 442.934 15.543C442.665 15.7139 442.46 15.9165 442.318 16.1509C442.177 16.3853 442.106 16.6489 442.106 16.9419C442.106 17.2446 442.187 17.5229 442.348 17.7769C442.509 18.0308 442.736 18.2334 443.029 18.3848C443.322 18.5312 443.661 18.6045 444.047 18.6045C444.574 18.6045 445.041 18.5142 445.446 18.3335C445.856 18.1479 446.2 17.8989 446.479 17.5864C446.757 17.269 446.959 16.9028 447.086 16.4878L447.343 16.9126C447.26 17.1714 447.13 17.4326 446.955 17.6963C446.779 17.96 446.552 18.2017 446.273 18.4214C445.995 18.6362 445.668 18.812 445.292 18.9487C444.916 19.0806 444.489 19.1465 444.01 19.1465C443.507 19.1465 443.068 19.0537 442.692 18.8682C442.321 18.6777 442.033 18.4189 441.828 18.0918C441.623 17.7598 441.52 17.3813 441.52 16.9565C441.52 16.5903 441.603 16.2559 441.769 15.9531C441.935 15.6504 442.174 15.3916 442.487 15.1768C442.804 14.957 443.188 14.791 443.637 14.6787C444.091 14.5615 444.601 14.5029 445.167 14.5029H447.145ZM450.69 7.75V19H450.104V7.75H450.69ZM458.131 17.5425V13.4482C458.131 13.0332 458.043 12.6768 457.868 12.3789C457.692 12.0811 457.436 11.854 457.099 11.6978C456.762 11.5366 456.349 11.4561 455.861 11.4561C455.407 11.4561 454.999 11.5366 454.638 11.6978C454.281 11.854 454 12.0688 453.795 12.3423C453.59 12.6157 453.488 12.9209 453.488 13.2578L452.902 13.2505C452.902 12.9478 452.973 12.6572 453.114 12.3789C453.261 12.1006 453.466 11.854 453.729 11.6392C453.998 11.4194 454.313 11.2461 454.674 11.1191C455.041 10.9922 455.441 10.9287 455.875 10.9287C456.432 10.9287 456.923 11.0239 457.348 11.2144C457.777 11.3999 458.112 11.6807 458.351 12.0566C458.59 12.4326 458.71 12.9014 458.71 13.4629V17.374C458.71 17.6572 458.729 17.9429 458.769 18.231C458.808 18.519 458.861 18.751 458.93 18.9268V19H458.292C458.239 18.8145 458.197 18.5874 458.168 18.3188C458.144 18.0503 458.131 17.7915 458.131 17.5425ZM458.322 14.5029L458.336 15.0083H456.403C455.915 15.0083 455.478 15.0547 455.092 15.1475C454.706 15.2402 454.379 15.3721 454.11 15.543C453.842 15.7139 453.637 15.9165 453.495 16.1509C453.354 16.3853 453.283 16.6489 453.283 16.9419C453.283 17.2446 453.363 17.5229 453.524 17.7769C453.686 18.0308 453.913 18.2334 454.206 18.3848C454.499 18.5312 454.838 18.6045 455.224 18.6045C455.751 18.6045 456.217 18.5142 456.623 18.3335C457.033 18.1479 457.377 17.8989 457.655 17.5864C457.934 17.269 458.136 16.9028 458.263 16.4878L458.52 16.9126C458.437 17.1714 458.307 17.4326 458.131 17.6963C457.956 17.96 457.729 18.2017 457.45 18.4214C457.172 18.6362 456.845 18.812 456.469 18.9487C456.093 19.0806 455.666 19.1465 455.187 19.1465C454.684 19.1465 454.245 19.0537 453.869 18.8682C453.498 18.6777 453.209 18.4189 453.004 18.0918C452.799 17.7598 452.697 17.3813 452.697 16.9565C452.697 16.5903 452.78 16.2559 452.946 15.9531C453.112 15.6504 453.351 15.3916 453.664 15.1768C453.981 14.957 454.364 14.791 454.813 14.6787C455.268 14.5615 455.778 14.5029 456.344 14.5029H458.322ZM461.706 12.7524V19H461.12V11.0752H461.691L461.706 12.7524ZM461.61 14.4297L461.317 14.0928C461.356 13.6729 461.454 13.2725 461.61 12.8916C461.771 12.5107 461.984 12.1738 462.248 11.8809C462.516 11.5879 462.831 11.356 463.192 11.1851C463.559 11.0142 463.966 10.9287 464.416 10.9287C464.811 10.9287 465.165 10.9824 465.478 11.0898C465.795 11.1924 466.063 11.356 466.283 11.5806C466.503 11.8003 466.671 12.0884 466.789 12.4448C466.906 12.8013 466.964 13.2285 466.964 13.7266V19H466.378V13.7412C466.378 13.1455 466.291 12.6841 466.115 12.3569C465.939 12.0298 465.695 11.8003 465.382 11.6685C465.07 11.5317 464.711 11.4634 464.306 11.4634C463.827 11.4634 463.419 11.5684 463.083 11.7783C462.746 11.9834 462.47 12.2446 462.255 12.562C462.045 12.8745 461.889 13.1992 461.786 13.5361C461.684 13.873 461.625 14.1709 461.61 14.4297ZM466.957 13.7778L466.562 13.6387C466.601 13.2822 466.701 12.9429 466.862 12.6206C467.028 12.2935 467.245 12.0054 467.514 11.7563C467.782 11.5024 468.097 11.3022 468.458 11.1558C468.825 11.0044 469.23 10.9287 469.674 10.9287C470.08 10.9287 470.441 10.9849 470.758 11.0972C471.081 11.2046 471.349 11.3779 471.564 11.6172C471.784 11.8516 471.952 12.1543 472.069 12.5254C472.187 12.8916 472.245 13.3359 472.245 13.8584V19H471.659V13.8511C471.659 13.2261 471.571 12.7402 471.396 12.3936C471.22 12.0469 470.976 11.8052 470.663 11.6685C470.351 11.5269 469.989 11.4585 469.579 11.4634C469.145 11.4683 468.766 11.5488 468.444 11.7051C468.122 11.8613 467.853 12.0591 467.638 12.2983C467.423 12.5376 467.26 12.7891 467.147 13.0527C467.035 13.3115 466.972 13.5532 466.957 13.7778ZM479.489 17.5425V13.4482C479.489 13.0332 479.401 12.6768 479.225 12.3789C479.049 12.0811 478.793 11.854 478.456 11.6978C478.119 11.5366 477.707 11.4561 477.218 11.4561C476.764 11.4561 476.356 11.5366 475.995 11.6978C475.639 11.854 475.358 12.0688 475.153 12.3423C474.948 12.6157 474.845 12.9209 474.845 13.2578L474.259 13.2505C474.259 12.9478 474.33 12.6572 474.472 12.3789C474.618 12.1006 474.823 11.854 475.087 11.6392C475.355 11.4194 475.67 11.2461 476.032 11.1191C476.398 10.9922 476.798 10.9287 477.233 10.9287C477.79 10.9287 478.28 11.0239 478.705 11.2144C479.135 11.3999 479.469 11.6807 479.708 12.0566C479.948 12.4326 480.067 12.9014 480.067 13.4629V17.374C480.067 17.6572 480.087 17.9429 480.126 18.231C480.165 18.519 480.219 18.751 480.287 18.9268V19H479.65C479.596 18.8145 479.555 18.5874 479.525 18.3188C479.501 18.0503 479.489 17.7915 479.489 17.5425ZM479.679 14.5029L479.694 15.0083H477.76C477.272 15.0083 476.835 15.0547 476.449 15.1475C476.063 15.2402 475.736 15.3721 475.468 15.543C475.199 15.7139 474.994 15.9165 474.853 16.1509C474.711 16.3853 474.64 16.6489 474.64 16.9419C474.64 17.2446 474.721 17.5229 474.882 17.7769C475.043 18.0308 475.27 18.2334 475.563 18.3848C475.856 18.5312 476.195 18.6045 476.581 18.6045C477.108 18.6045 477.575 18.5142 477.98 18.3335C478.39 18.1479 478.734 17.8989 479.013 17.5864C479.291 17.269 479.494 16.9028 479.621 16.4878L479.877 16.9126C479.794 17.1714 479.665 17.4326 479.489 17.6963C479.313 17.96 479.086 18.2017 478.808 18.4214C478.529 18.6362 478.202 18.812 477.826 18.9487C477.45 19.0806 477.023 19.1465 476.544 19.1465C476.042 19.1465 475.602 19.0537 475.226 18.8682C474.855 18.6777 474.567 18.4189 474.362 18.0918C474.157 17.7598 474.054 17.3813 474.054 16.9565C474.054 16.5903 474.137 16.2559 474.303 15.9531C474.469 15.6504 474.708 15.3916 475.021 15.1768C475.338 14.957 475.722 14.791 476.171 14.6787C476.625 14.5615 477.135 14.5029 477.702 14.5029H479.679ZM483.122 12.7671V19H482.543V11.0752H483.114L483.122 12.7671ZM483.012 14.4297L482.726 14.0928C482.77 13.6729 482.873 13.2725 483.034 12.8916C483.2 12.5107 483.417 12.1738 483.686 11.8809C483.959 11.5879 484.276 11.356 484.638 11.1851C485.004 11.0142 485.407 10.9287 485.846 10.9287C486.242 10.9287 486.596 10.9849 486.908 11.0972C487.221 11.2046 487.484 11.3755 487.699 11.6099C487.919 11.8442 488.085 12.147 488.197 12.5181C488.31 12.8843 488.366 13.3311 488.366 13.8584V19H487.787V13.8584C487.787 13.2334 487.702 12.75 487.531 12.4082C487.36 12.0615 487.121 11.8174 486.813 11.6758C486.51 11.5342 486.156 11.4634 485.751 11.4634C485.282 11.4634 484.877 11.5684 484.535 11.7783C484.198 11.9834 483.92 12.2446 483.7 12.562C483.48 12.8745 483.312 13.1992 483.195 13.5361C483.083 13.873 483.021 14.1709 483.012 14.4297Z" fill="white"/>
<path d="M268.358 20H265.831L265.846 19.458H268.358C269.125 19.458 269.798 19.2798 270.379 18.9233C270.965 18.5669 271.424 18.0737 271.756 17.4438C272.088 16.8091 272.254 16.0791 272.254 15.2539V14.0601C272.254 13.4448 272.159 12.8809 271.969 12.3682C271.778 11.8555 271.51 11.4136 271.163 11.0425C270.821 10.6714 270.414 10.3857 269.94 10.1855C269.466 9.98047 268.949 9.87793 268.387 9.87793H265.787V9.33594H268.387C269.027 9.33594 269.618 9.45068 270.16 9.68018C270.707 9.90479 271.18 10.2271 271.581 10.647C271.981 11.062 272.291 11.5625 272.511 12.1484C272.735 12.7295 272.848 13.374 272.848 14.082V15.2539C272.848 15.9619 272.735 16.6089 272.511 17.1948C272.291 17.7759 271.979 18.2764 271.573 18.6963C271.173 19.1113 270.699 19.4336 270.152 19.6631C269.61 19.8877 269.012 20 268.358 20ZM266.014 9.33594V20H265.421V9.33594H266.014ZM279.959 18.5425V14.4482C279.959 14.0332 279.872 13.6768 279.696 13.3789C279.52 13.0811 279.264 12.854 278.927 12.6978C278.59 12.5366 278.177 12.4561 277.689 12.4561C277.235 12.4561 276.827 12.5366 276.466 12.6978C276.109 12.854 275.829 13.0688 275.624 13.3423C275.418 13.6157 275.316 13.9209 275.316 14.2578L274.73 14.2505C274.73 13.9478 274.801 13.6572 274.942 13.3789C275.089 13.1006 275.294 12.854 275.558 12.6392C275.826 12.4194 276.141 12.2461 276.502 12.1191C276.869 11.9922 277.269 11.9287 277.704 11.9287C278.26 11.9287 278.751 12.0239 279.176 12.2144C279.605 12.3999 279.94 12.6807 280.179 13.0566C280.418 13.4326 280.538 13.9014 280.538 14.4629V18.374C280.538 18.6572 280.558 18.9429 280.597 19.231C280.636 19.519 280.689 19.751 280.758 19.9268V20H280.121C280.067 19.8145 280.025 19.5874 279.996 19.3188C279.972 19.0503 279.959 18.7915 279.959 18.5425ZM280.15 15.5029L280.165 16.0083H278.231C277.743 16.0083 277.306 16.0547 276.92 16.1475C276.534 16.2402 276.207 16.3721 275.938 16.543C275.67 16.7139 275.465 16.9165 275.323 17.1509C275.182 17.3853 275.111 17.6489 275.111 17.9419C275.111 18.2446 275.191 18.5229 275.353 18.7769C275.514 19.0308 275.741 19.2334 276.034 19.3848C276.327 19.5312 276.666 19.6045 277.052 19.6045C277.579 19.6045 278.045 19.5142 278.451 19.3335C278.861 19.1479 279.205 18.8989 279.483 18.5864C279.762 18.269 279.964 17.9028 280.091 17.4878L280.348 17.9126C280.265 18.1714 280.135 18.4326 279.959 18.6963C279.784 18.96 279.557 19.2017 279.278 19.4214C279 19.6362 278.673 19.812 278.297 19.9487C277.921 20.0806 277.494 20.1465 277.015 20.1465C276.512 20.1465 276.073 20.0537 275.697 19.8682C275.326 19.6777 275.038 19.4189 274.833 19.0918C274.627 18.7598 274.525 18.3813 274.525 17.9565C274.525 17.5903 274.608 17.2559 274.774 16.9531C274.94 16.6504 275.179 16.3916 275.492 16.1768C275.809 15.957 276.192 15.791 276.642 15.6787C277.096 15.5615 277.606 15.5029 278.172 15.5029H280.15ZM283.585 13.5986V23.0469H282.999V12.0752H283.563L283.585 13.5986ZM289.195 15.957V16.1108C289.195 16.7114 289.127 17.2583 288.99 17.7515C288.858 18.2446 288.663 18.6694 288.404 19.0259C288.15 19.3823 287.838 19.6582 287.467 19.8535C287.096 20.0488 286.673 20.1465 286.2 20.1465C285.746 20.1465 285.338 20.0806 284.977 19.9487C284.615 19.812 284.303 19.6216 284.039 19.3774C283.775 19.1333 283.563 18.855 283.402 18.5425C283.241 18.2251 283.128 17.8857 283.065 17.5244V14.7705C283.148 14.3555 283.272 13.9771 283.438 13.6353C283.609 13.2886 283.822 12.9883 284.076 12.7344C284.334 12.4756 284.64 12.2778 284.991 12.1411C285.343 11.9995 285.741 11.9287 286.185 11.9287C286.659 11.9287 287.081 12.0239 287.452 12.2144C287.828 12.3999 288.146 12.6685 288.404 13.02C288.663 13.3667 288.858 13.7891 288.99 14.2871C289.127 14.7803 289.195 15.3369 289.195 15.957ZM288.602 16.1108V15.957C288.602 15.459 288.551 14.9976 288.448 14.5728C288.351 14.1479 288.199 13.7793 287.994 13.4668C287.789 13.1543 287.53 12.9102 287.218 12.7344C286.905 12.5586 286.537 12.4707 286.112 12.4707C285.648 12.4707 285.255 12.5488 284.933 12.7051C284.61 12.8564 284.344 13.0542 284.134 13.2983C283.929 13.5425 283.771 13.8062 283.658 14.0894C283.546 14.3677 283.463 14.6313 283.409 14.8804V17.4805C283.497 17.8711 283.653 18.2275 283.878 18.5498C284.103 18.8721 284.4 19.1309 284.771 19.3262C285.147 19.5166 285.599 19.6118 286.126 19.6118C286.551 19.6118 286.917 19.5239 287.225 19.3481C287.533 19.1724 287.789 18.9282 287.994 18.6157C288.199 18.3032 288.351 17.9346 288.448 17.5098C288.551 17.0801 288.602 16.6138 288.602 16.1108ZM296.19 18.5425V14.4482C296.19 14.0332 296.102 13.6768 295.926 13.3789C295.75 13.0811 295.494 12.854 295.157 12.6978C294.82 12.5366 294.408 12.4561 293.919 12.4561C293.465 12.4561 293.058 12.5366 292.696 12.6978C292.34 12.854 292.059 13.0688 291.854 13.3423C291.649 13.6157 291.546 13.9209 291.546 14.2578L290.96 14.2505C290.96 13.9478 291.031 13.6572 291.173 13.3789C291.319 13.1006 291.524 12.854 291.788 12.6392C292.057 12.4194 292.372 12.2461 292.733 12.1191C293.099 11.9922 293.5 11.9287 293.934 11.9287C294.491 11.9287 294.981 12.0239 295.406 12.2144C295.836 12.3999 296.17 12.6807 296.41 13.0566C296.649 13.4326 296.769 13.9014 296.769 14.4629V18.374C296.769 18.6572 296.788 18.9429 296.827 19.231C296.866 19.519 296.92 19.751 296.988 19.9268V20H296.351C296.297 19.8145 296.256 19.5874 296.227 19.3188C296.202 19.0503 296.19 18.7915 296.19 18.5425ZM296.38 15.5029L296.395 16.0083H294.461C293.973 16.0083 293.536 16.0547 293.15 16.1475C292.765 16.2402 292.438 16.3721 292.169 16.543C291.9 16.7139 291.695 16.9165 291.554 17.1509C291.412 17.3853 291.341 17.6489 291.341 17.9419C291.341 18.2446 291.422 18.5229 291.583 18.7769C291.744 19.0308 291.971 19.2334 292.264 19.3848C292.557 19.5312 292.896 19.6045 293.282 19.6045C293.81 19.6045 294.276 19.5142 294.681 19.3335C295.091 19.1479 295.436 18.8989 295.714 18.5864C295.992 18.269 296.195 17.9028 296.322 17.4878L296.578 17.9126C296.495 18.1714 296.366 18.4326 296.19 18.6963C296.014 18.96 295.787 19.2017 295.509 19.4214C295.23 19.6362 294.903 19.812 294.527 19.9487C294.151 20.0806 293.724 20.1465 293.246 20.1465C292.743 20.1465 292.303 20.0537 291.927 19.8682C291.556 19.6777 291.268 19.4189 291.063 19.0918C290.858 18.7598 290.755 18.3813 290.755 17.9565C290.755 17.5903 290.838 17.2559 291.004 16.9531C291.17 16.6504 291.41 16.3916 291.722 16.1768C292.04 15.957 292.423 15.791 292.872 15.6787C293.326 15.5615 293.836 15.5029 294.403 15.5029H296.38ZM302.057 12.0752V12.6025H298.263V12.0752H302.057ZM299.728 9.98047H300.313V18.0884C300.313 18.5132 300.365 18.8354 300.467 19.0552C300.575 19.27 300.714 19.4165 300.885 19.4946C301.061 19.5679 301.249 19.6045 301.449 19.6045C301.59 19.6045 301.72 19.5972 301.837 19.5825C301.959 19.5679 302.081 19.5508 302.203 19.5312L302.254 20.0439C302.147 20.0781 302.008 20.1025 301.837 20.1172C301.666 20.1367 301.515 20.1465 301.383 20.1465C301.051 20.1465 300.76 20.0854 300.511 19.9634C300.262 19.8413 300.069 19.6313 299.933 19.3335C299.796 19.0308 299.728 18.6157 299.728 18.0884V9.98047ZM308.319 12.0752V20H307.733V12.0752H308.319ZM307.55 9.67285C307.55 9.54102 307.594 9.42871 307.682 9.33594C307.774 9.23828 307.892 9.18945 308.033 9.18945C308.17 9.18945 308.285 9.23828 308.377 9.33594C308.47 9.42871 308.517 9.54102 308.517 9.67285C308.517 9.80469 308.47 9.91699 308.377 10.0098C308.285 10.0977 308.17 10.1416 308.033 10.1416C307.892 10.1416 307.774 10.0977 307.682 10.0098C307.594 9.91699 307.55 9.80469 307.55 9.67285ZM311.527 8.75V20H310.941V8.75H311.527ZM314.574 13.7524V20H313.988V12.0752H314.559L314.574 13.7524ZM314.479 15.4297L314.186 15.0928C314.225 14.6729 314.322 14.2725 314.479 13.8916C314.64 13.5107 314.852 13.1738 315.116 12.8809C315.384 12.5879 315.699 12.356 316.061 12.1851C316.427 12.0142 316.834 11.9287 317.284 11.9287C317.679 11.9287 318.033 11.9824 318.346 12.0898C318.663 12.1924 318.932 12.356 319.151 12.5806C319.371 12.8003 319.54 13.0884 319.657 13.4448C319.774 13.8013 319.833 14.2285 319.833 14.7266V20H319.247V14.7412C319.247 14.1455 319.159 13.6841 318.983 13.3569C318.807 13.0298 318.563 12.8003 318.25 12.6685C317.938 12.5317 317.579 12.4634 317.174 12.4634C316.695 12.4634 316.288 12.5684 315.951 12.7783C315.614 12.9834 315.338 13.2446 315.123 13.562C314.913 13.8745 314.757 14.1992 314.654 14.5361C314.552 14.873 314.493 15.1709 314.479 15.4297ZM319.825 14.7778L319.43 14.6387C319.469 14.2822 319.569 13.9429 319.73 13.6206C319.896 13.2935 320.113 13.0054 320.382 12.7563C320.65 12.5024 320.965 12.3022 321.327 12.1558C321.693 12.0044 322.098 11.9287 322.542 11.9287C322.948 11.9287 323.309 11.9849 323.626 12.0972C323.949 12.2046 324.217 12.3779 324.432 12.6172C324.652 12.8516 324.82 13.1543 324.938 13.5254C325.055 13.8916 325.113 14.3359 325.113 14.8584V20H324.527V14.8511C324.527 14.2261 324.439 13.7402 324.264 13.3936C324.088 13.0469 323.844 12.8052 323.531 12.6685C323.219 12.5269 322.857 12.4585 322.447 12.4634C322.013 12.4683 321.634 12.5488 321.312 12.7051C320.99 12.8613 320.721 13.0591 320.506 13.2983C320.292 13.5376 320.128 13.7891 320.016 14.0527C319.903 14.3115 319.84 14.5532 319.825 14.7778ZM332.665 18.1689V12.0752H333.25V20H332.672L332.665 18.1689ZM332.767 16.8213L333.148 16.8066C333.148 17.29 333.087 17.7344 332.965 18.1396C332.848 18.5449 332.662 18.8989 332.408 19.2017C332.159 19.4995 331.837 19.7314 331.441 19.8975C331.046 20.0635 330.572 20.1465 330.021 20.1465C329.635 20.1465 329.281 20.0928 328.958 19.9854C328.641 19.873 328.365 19.6973 328.131 19.458C327.901 19.2188 327.723 18.9062 327.596 18.5205C327.474 18.1348 327.413 17.6685 327.413 17.1216V12.0752H327.992V17.1362C327.992 17.5952 328.043 17.9834 328.146 18.3008C328.253 18.6182 328.399 18.8721 328.585 19.0625C328.771 19.2529 328.988 19.3921 329.237 19.48C329.486 19.563 329.757 19.6045 330.05 19.6045C330.733 19.6045 331.273 19.4727 331.668 19.209C332.069 18.9453 332.352 18.6011 332.518 18.1763C332.684 17.7515 332.767 17.2998 332.767 16.8213Z" fill="white"/>
<path d="M104.359 15.4375H100.953L100.938 14.8672H103.789C104.424 14.8672 104.961 14.7812 105.398 14.6094C105.836 14.4375 106.167 14.1797 106.391 13.8359C106.615 13.487 106.727 13.0521 106.727 12.5312C106.727 12.0104 106.612 11.5781 106.383 11.2344C106.154 10.8906 105.81 10.6328 105.352 10.4609C104.898 10.2891 104.331 10.2031 103.648 10.2031H101.148V21H100.516V9.625H103.648C104.227 9.625 104.745 9.68229 105.203 9.79688C105.661 9.91146 106.049 10.0911 106.367 10.3359C106.69 10.5755 106.938 10.8802 107.109 11.25C107.281 11.6198 107.367 12.0573 107.367 12.5625C107.367 13.0312 107.273 13.4531 107.086 13.8281C106.898 14.2031 106.628 14.5104 106.273 14.75C105.924 14.9844 105.497 15.1276 104.992 15.1797L104.359 15.4375ZM104.281 21H100.82L101.094 20.4219H104.281C104.891 20.4219 105.411 20.3203 105.844 20.1172C106.281 19.9089 106.617 19.6146 106.852 19.2344C107.091 18.849 107.211 18.388 107.211 17.8516C107.211 17.4193 107.107 17.0208 106.898 16.6562C106.69 16.2865 106.375 15.9922 105.953 15.7734C105.531 15.5495 105 15.4375 104.359 15.4375H102.453L102.469 14.8672H105.211L105.297 15.0703C105.792 15.1276 106.229 15.2865 106.609 15.5469C106.995 15.8073 107.297 16.138 107.516 16.5391C107.734 16.9349 107.844 17.3672 107.844 17.8359C107.844 18.5182 107.693 19.0938 107.391 19.5625C107.089 20.0312 106.669 20.388 106.133 20.6328C105.602 20.8776 104.984 21 104.281 21ZM113.148 21.1562C112.617 21.1562 112.125 21.0547 111.672 20.8516C111.219 20.6432 110.823 20.3542 110.484 19.9844C110.146 19.6094 109.88 19.1667 109.688 18.6562C109.5 18.1458 109.406 17.5859 109.406 16.9766V16.6328C109.406 16.0026 109.5 15.4297 109.688 14.9141C109.88 14.3932 110.141 13.9453 110.469 13.5703C110.797 13.1901 111.174 12.8984 111.602 12.6953C112.034 12.4922 112.495 12.3906 112.984 12.3906C113.479 12.3906 113.927 12.4818 114.328 12.6641C114.729 12.8464 115.073 13.1016 115.359 13.4297C115.646 13.7578 115.865 14.1484 116.016 14.6016C116.167 15.0547 116.242 15.5547 116.242 16.1016V16.625H109.797V16.0547H115.625V15.9531C115.62 15.4219 115.51 14.9297 115.297 14.4766C115.089 14.0234 114.789 13.6589 114.398 13.3828C114.008 13.1016 113.536 12.9609 112.984 12.9609C112.542 12.9609 112.138 13.0547 111.773 13.2422C111.414 13.4297 111.104 13.6901 110.844 14.0234C110.583 14.3516 110.383 14.7396 110.242 15.1875C110.102 15.6302 110.031 16.112 110.031 16.6328V16.9766C110.031 17.4766 110.109 17.9453 110.266 18.3828C110.422 18.8203 110.641 19.2057 110.922 19.5391C111.203 19.8672 111.534 20.125 111.914 20.3125C112.294 20.5 112.711 20.5938 113.164 20.5938C113.654 20.5938 114.102 20.5078 114.508 20.3359C114.914 20.1641 115.284 19.862 115.617 19.4297L116.023 19.7344C115.836 20.0052 115.609 20.2474 115.344 20.4609C115.078 20.6745 114.763 20.8438 114.398 20.9688C114.039 21.0938 113.622 21.1562 113.148 21.1562ZM118.898 9V21H118.273V9H118.898ZM126.836 19.4453V15.0781C126.836 14.6354 126.742 14.2552 126.555 13.9375C126.367 13.6198 126.094 13.3776 125.734 13.2109C125.375 13.0391 124.935 12.9531 124.414 12.9531C123.93 12.9531 123.495 13.0391 123.109 13.2109C122.729 13.3776 122.43 13.6068 122.211 13.8984C121.992 14.1901 121.883 14.5156 121.883 14.875L121.258 14.8672C121.258 14.5443 121.333 14.2344 121.484 13.9375C121.641 13.6406 121.859 13.3776 122.141 13.1484C122.427 12.9141 122.763 12.7292 123.148 12.5938C123.539 12.4583 123.966 12.3906 124.43 12.3906C125.023 12.3906 125.547 12.4922 126 12.6953C126.458 12.8932 126.815 13.1927 127.07 13.5938C127.326 13.9948 127.453 14.4948 127.453 15.0938V19.2656C127.453 19.5677 127.474 19.8724 127.516 20.1797C127.557 20.487 127.615 20.7344 127.688 20.9219V21H127.008C126.951 20.8021 126.906 20.5599 126.875 20.2734C126.849 19.987 126.836 19.7109 126.836 19.4453ZM127.039 16.2031L127.055 16.7422H124.992C124.471 16.7422 124.005 16.7917 123.594 16.8906C123.182 16.9896 122.833 17.1302 122.547 17.3125C122.26 17.4948 122.042 17.7109 121.891 17.9609C121.74 18.2109 121.664 18.4922 121.664 18.8047C121.664 19.1276 121.75 19.4245 121.922 19.6953C122.094 19.9661 122.336 20.1823 122.648 20.3438C122.961 20.5 123.323 20.5781 123.734 20.5781C124.297 20.5781 124.794 20.4818 125.227 20.2891C125.664 20.0911 126.031 19.8255 126.328 19.4922C126.625 19.1536 126.841 18.763 126.977 18.3203L127.25 18.7734C127.161 19.0495 127.023 19.3281 126.836 19.6094C126.648 19.8906 126.406 20.1484 126.109 20.3828C125.812 20.612 125.464 20.7995 125.062 20.9453C124.661 21.0859 124.206 21.1562 123.695 21.1562C123.159 21.1562 122.69 21.0573 122.289 20.8594C121.893 20.6562 121.586 20.3802 121.367 20.0312C121.148 19.6771 121.039 19.2734 121.039 18.8203C121.039 18.4297 121.128 18.0729 121.305 17.75C121.482 17.4271 121.737 17.151 122.07 16.9219C122.409 16.6875 122.818 16.5104 123.297 16.3906C123.781 16.2656 124.326 16.2031 124.93 16.2031H127.039ZM130.188 12.5469H130.812V22.0078C130.812 22.5234 130.724 22.9609 130.547 23.3203C130.375 23.6797 130.122 23.9505 129.789 24.1328C129.461 24.3203 129.06 24.4141 128.586 24.4141C128.456 24.4141 128.323 24.401 128.188 24.375C128.052 24.349 127.922 24.3125 127.797 24.2656L127.82 23.7109C127.904 23.737 128.013 23.763 128.148 23.7891C128.279 23.8203 128.411 23.8359 128.547 23.8359C128.896 23.8359 129.193 23.7656 129.438 23.625C129.682 23.4844 129.867 23.276 129.992 23C130.122 22.7292 130.188 22.3984 130.188 22.0078V12.5469ZM130.016 9.98438C130.016 9.84375 130.062 9.72396 130.156 9.625C130.255 9.52083 130.38 9.46875 130.531 9.46875C130.682 9.46875 130.805 9.52083 130.898 9.625C130.997 9.72396 131.047 9.84375 131.047 9.98438C131.047 10.125 130.997 10.2448 130.898 10.3438C130.805 10.4375 130.682 10.4844 130.531 10.4844C130.38 10.4844 130.255 10.4375 130.156 10.3438C130.062 10.2448 130.016 10.125 130.016 9.98438ZM138.883 19.4453V15.0781C138.883 14.6354 138.789 14.2552 138.602 13.9375C138.414 13.6198 138.141 13.3776 137.781 13.2109C137.422 13.0391 136.982 12.9531 136.461 12.9531C135.977 12.9531 135.542 13.0391 135.156 13.2109C134.776 13.3776 134.477 13.6068 134.258 13.8984C134.039 14.1901 133.93 14.5156 133.93 14.875L133.305 14.8672C133.305 14.5443 133.38 14.2344 133.531 13.9375C133.688 13.6406 133.906 13.3776 134.188 13.1484C134.474 12.9141 134.81 12.7292 135.195 12.5938C135.586 12.4583 136.013 12.3906 136.477 12.3906C137.07 12.3906 137.594 12.4922 138.047 12.6953C138.505 12.8932 138.862 13.1927 139.117 13.5938C139.372 13.9948 139.5 14.4948 139.5 15.0938V19.2656C139.5 19.5677 139.521 19.8724 139.562 20.1797C139.604 20.487 139.661 20.7344 139.734 20.9219V21H139.055C138.997 20.8021 138.953 20.5599 138.922 20.2734C138.896 19.987 138.883 19.7109 138.883 19.4453ZM139.086 16.2031L139.102 16.7422H137.039C136.518 16.7422 136.052 16.7917 135.641 16.8906C135.229 16.9896 134.88 17.1302 134.594 17.3125C134.307 17.4948 134.089 17.7109 133.938 17.9609C133.786 18.2109 133.711 18.4922 133.711 18.8047C133.711 19.1276 133.797 19.4245 133.969 19.6953C134.141 19.9661 134.383 20.1823 134.695 20.3438C135.008 20.5 135.37 20.5781 135.781 20.5781C136.344 20.5781 136.841 20.4818 137.273 20.2891C137.711 20.0911 138.078 19.8255 138.375 19.4922C138.672 19.1536 138.888 18.763 139.023 18.3203L139.297 18.7734C139.208 19.0495 139.07 19.3281 138.883 19.6094C138.695 19.8906 138.453 20.1484 138.156 20.3828C137.859 20.612 137.51 20.7995 137.109 20.9453C136.708 21.0859 136.253 21.1562 135.742 21.1562C135.206 21.1562 134.737 21.0573 134.336 20.8594C133.94 20.6562 133.633 20.3802 133.414 20.0312C133.195 19.6771 133.086 19.2734 133.086 18.8203C133.086 18.4297 133.174 18.0729 133.352 17.75C133.529 17.4271 133.784 17.151 134.117 16.9219C134.456 16.6875 134.865 16.5104 135.344 16.3906C135.828 16.2656 136.372 16.2031 136.977 16.2031H139.086ZM142.758 13.9844V21H142.141V12.5469H142.75L142.758 13.9844ZM145.977 12.4844L145.938 13.0469C145.844 13.0312 145.75 13.0182 145.656 13.0078C145.562 12.9974 145.464 12.9922 145.359 12.9922C144.911 12.9922 144.518 13.0807 144.18 13.2578C143.846 13.4349 143.565 13.6771 143.336 13.9844C143.112 14.2917 142.943 14.6484 142.828 15.0547C142.714 15.4609 142.654 15.8958 142.648 16.3594L142.344 16.4219C142.344 15.8438 142.404 15.3099 142.523 14.8203C142.648 14.3307 142.836 13.9036 143.086 13.5391C143.336 13.1745 143.651 12.8932 144.031 12.6953C144.411 12.4922 144.859 12.3906 145.375 12.3906C145.5 12.3906 145.615 12.401 145.719 12.4219C145.823 12.4375 145.909 12.4583 145.977 12.4844ZM156.977 19.3594V9H157.594V21H157L156.977 19.3594ZM150.992 16.8516V16.6875C150.992 16.026 151.065 15.4323 151.211 14.9062C151.357 14.375 151.568 13.9245 151.844 13.5547C152.12 13.1797 152.456 12.8932 152.852 12.6953C153.253 12.4922 153.706 12.3906 154.211 12.3906C154.685 12.3906 155.107 12.4661 155.477 12.6172C155.846 12.763 156.167 12.974 156.438 13.25C156.708 13.5208 156.93 13.8411 157.102 14.2109C157.279 14.5755 157.409 14.9792 157.492 15.4219V18.3359C157.43 18.7266 157.312 19.0938 157.141 19.4375C156.974 19.776 156.753 20.0755 156.477 20.3359C156.206 20.5911 155.88 20.7917 155.5 20.9375C155.12 21.0833 154.685 21.1562 154.195 21.1562C153.695 21.1562 153.247 21.0521 152.852 20.8438C152.456 20.6354 152.12 20.3411 151.844 19.9609C151.568 19.5807 151.357 19.1276 151.211 18.6016C151.065 18.0755 150.992 17.4922 150.992 16.8516ZM151.625 16.6875V16.8516C151.625 17.388 151.677 17.8828 151.781 18.3359C151.891 18.7891 152.052 19.1823 152.266 19.5156C152.484 19.849 152.758 20.1094 153.086 20.2969C153.419 20.4844 153.81 20.5781 154.258 20.5781C154.831 20.5781 155.315 20.474 155.711 20.2656C156.107 20.0573 156.422 19.7812 156.656 19.4375C156.896 19.0938 157.062 18.7135 157.156 18.2969V15.5391C157.099 15.2734 157.008 14.9922 156.883 14.6953C156.763 14.3932 156.594 14.112 156.375 13.8516C156.161 13.5911 155.883 13.3802 155.539 13.2188C155.195 13.0521 154.773 12.9688 154.273 12.9688C153.82 12.9688 153.427 13.0625 153.094 13.25C152.766 13.4375 152.492 13.6979 152.273 14.0312C152.055 14.3646 151.891 14.7578 151.781 15.2109C151.677 15.6641 151.625 16.1562 151.625 16.6875ZM160.914 12.5469V21H160.289V12.5469H160.914ZM160.094 9.98438C160.094 9.84375 160.141 9.72396 160.234 9.625C160.333 9.52083 160.458 9.46875 160.609 9.46875C160.755 9.46875 160.878 9.52083 160.977 9.625C161.076 9.72396 161.125 9.84375 161.125 9.98438C161.125 10.125 161.076 10.2448 160.977 10.3438C160.878 10.4375 160.755 10.4844 160.609 10.4844C160.458 10.4844 160.333 10.4375 160.234 10.3438C160.141 10.2448 160.094 10.125 160.094 9.98438ZM164.164 14.3359V21H163.539V12.5469H164.148L164.164 14.3359ZM164.062 16.125L163.75 15.7656C163.792 15.3177 163.896 14.8906 164.062 14.4844C164.234 14.0781 164.461 13.7188 164.742 13.4062C165.029 13.0938 165.365 12.8464 165.75 12.6641C166.141 12.4818 166.576 12.3906 167.055 12.3906C167.477 12.3906 167.854 12.4479 168.188 12.5625C168.526 12.6719 168.812 12.8464 169.047 13.0859C169.281 13.3203 169.461 13.6276 169.586 14.0078C169.711 14.388 169.773 14.8438 169.773 15.375V21H169.148V15.3906C169.148 14.7552 169.055 14.263 168.867 13.9141C168.68 13.5651 168.419 13.3203 168.086 13.1797C167.753 13.0339 167.37 12.9609 166.938 12.9609C166.427 12.9609 165.992 13.0729 165.633 13.2969C165.273 13.5156 164.979 13.7943 164.75 14.1328C164.526 14.4661 164.359 14.8125 164.25 15.1719C164.141 15.5312 164.078 15.849 164.062 16.125ZM169.766 15.4297L169.344 15.2812C169.385 14.901 169.492 14.5391 169.664 14.1953C169.841 13.8464 170.073 13.5391 170.359 13.2734C170.646 13.0026 170.982 12.7891 171.367 12.6328C171.758 12.4714 172.19 12.3906 172.664 12.3906C173.096 12.3906 173.482 12.4505 173.82 12.5703C174.164 12.6849 174.451 12.8698 174.68 13.125C174.914 13.375 175.094 13.6979 175.219 14.0938C175.344 14.4844 175.406 14.9583 175.406 15.5156V21H174.781V15.5078C174.781 14.8411 174.688 14.3229 174.5 13.9531C174.312 13.5833 174.052 13.3255 173.719 13.1797C173.385 13.0286 173 12.9557 172.562 12.9609C172.099 12.9661 171.695 13.0521 171.352 13.2188C171.008 13.3854 170.721 13.5964 170.492 13.8516C170.263 14.1068 170.089 14.375 169.969 14.6562C169.849 14.9323 169.781 15.1901 169.766 15.4297ZM183.133 19.4453V15.0781C183.133 14.6354 183.039 14.2552 182.852 13.9375C182.664 13.6198 182.391 13.3776 182.031 13.2109C181.672 13.0391 181.232 12.9531 180.711 12.9531C180.227 12.9531 179.792 13.0391 179.406 13.2109C179.026 13.3776 178.727 13.6068 178.508 13.8984C178.289 14.1901 178.18 14.5156 178.18 14.875L177.555 14.8672C177.555 14.5443 177.63 14.2344 177.781 13.9375C177.938 13.6406 178.156 13.3776 178.438 13.1484C178.724 12.9141 179.06 12.7292 179.445 12.5938C179.836 12.4583 180.263 12.3906 180.727 12.3906C181.32 12.3906 181.844 12.4922 182.297 12.6953C182.755 12.8932 183.112 13.1927 183.367 13.5938C183.622 13.9948 183.75 14.4948 183.75 15.0938V19.2656C183.75 19.5677 183.771 19.8724 183.812 20.1797C183.854 20.487 183.911 20.7344 183.984 20.9219V21H183.305C183.247 20.8021 183.203 20.5599 183.172 20.2734C183.146 19.987 183.133 19.7109 183.133 19.4453ZM183.336 16.2031L183.352 16.7422H181.289C180.768 16.7422 180.302 16.7917 179.891 16.8906C179.479 16.9896 179.13 17.1302 178.844 17.3125C178.557 17.4948 178.339 17.7109 178.188 17.9609C178.036 18.2109 177.961 18.4922 177.961 18.8047C177.961 19.1276 178.047 19.4245 178.219 19.6953C178.391 19.9661 178.633 20.1823 178.945 20.3438C179.258 20.5 179.62 20.5781 180.031 20.5781C180.594 20.5781 181.091 20.4818 181.523 20.2891C181.961 20.0911 182.328 19.8255 182.625 19.4922C182.922 19.1536 183.138 18.763 183.273 18.3203L183.547 18.7734C183.458 19.0495 183.32 19.3281 183.133 19.6094C182.945 19.8906 182.703 20.1484 182.406 20.3828C182.109 20.612 181.76 20.7995 181.359 20.9453C180.958 21.0859 180.503 21.1562 179.992 21.1562C179.456 21.1562 178.987 21.0573 178.586 20.8594C178.19 20.6562 177.883 20.3802 177.664 20.0312C177.445 19.6771 177.336 19.2734 177.336 18.8203C177.336 18.4297 177.424 18.0729 177.602 17.75C177.779 17.4271 178.034 17.151 178.367 16.9219C178.706 16.6875 179.115 16.5104 179.594 16.3906C180.078 16.2656 180.622 16.2031 181.227 16.2031H183.336ZM187.008 14.3516V21H186.391V12.5469H187L187.008 14.3516ZM186.891 16.125L186.586 15.7656C186.633 15.3177 186.742 14.8906 186.914 14.4844C187.091 14.0781 187.323 13.7188 187.609 13.4062C187.901 13.0938 188.24 12.8464 188.625 12.6641C189.016 12.4818 189.445 12.3906 189.914 12.3906C190.336 12.3906 190.714 12.4505 191.047 12.5703C191.38 12.6849 191.661 12.8672 191.891 13.1172C192.125 13.3672 192.302 13.6901 192.422 14.0859C192.542 14.4766 192.602 14.9531 192.602 15.5156V21H191.984V15.5156C191.984 14.849 191.893 14.3333 191.711 13.9688C191.529 13.599 191.273 13.3385 190.945 13.1875C190.622 13.0365 190.245 12.9609 189.812 12.9609C189.312 12.9609 188.88 13.0729 188.516 13.2969C188.156 13.5156 187.859 13.7943 187.625 14.1328C187.391 14.4661 187.211 14.8125 187.086 15.1719C186.966 15.5312 186.901 15.849 186.891 16.125ZM200.414 19.4453V15.0781C200.414 14.6354 200.32 14.2552 200.133 13.9375C199.945 13.6198 199.672 13.3776 199.312 13.2109C198.953 13.0391 198.513 12.9531 197.992 12.9531C197.508 12.9531 197.073 13.0391 196.688 13.2109C196.307 13.3776 196.008 13.6068 195.789 13.8984C195.57 14.1901 195.461 14.5156 195.461 14.875L194.836 14.8672C194.836 14.5443 194.911 14.2344 195.062 13.9375C195.219 13.6406 195.438 13.3776 195.719 13.1484C196.005 12.9141 196.341 12.7292 196.727 12.5938C197.117 12.4583 197.544 12.3906 198.008 12.3906C198.602 12.3906 199.125 12.4922 199.578 12.6953C200.036 12.8932 200.393 13.1927 200.648 13.5938C200.904 13.9948 201.031 14.4948 201.031 15.0938V19.2656C201.031 19.5677 201.052 19.8724 201.094 20.1797C201.135 20.487 201.193 20.7344 201.266 20.9219V21H200.586C200.529 20.8021 200.484 20.5599 200.453 20.2734C200.427 19.987 200.414 19.7109 200.414 19.4453ZM200.617 16.2031L200.633 16.7422H198.57C198.049 16.7422 197.583 16.7917 197.172 16.8906C196.76 16.9896 196.411 17.1302 196.125 17.3125C195.839 17.4948 195.62 17.7109 195.469 17.9609C195.318 18.2109 195.242 18.4922 195.242 18.8047C195.242 19.1276 195.328 19.4245 195.5 19.6953C195.672 19.9661 195.914 20.1823 196.227 20.3438C196.539 20.5 196.901 20.5781 197.312 20.5781C197.875 20.5781 198.372 20.4818 198.805 20.2891C199.242 20.0911 199.609 19.8255 199.906 19.4922C200.203 19.1536 200.419 18.763 200.555 18.3203L200.828 18.7734C200.74 19.0495 200.602 19.3281 200.414 19.6094C200.227 19.8906 199.984 20.1484 199.688 20.3828C199.391 20.612 199.042 20.7995 198.641 20.9453C198.24 21.0859 197.784 21.1562 197.273 21.1562C196.737 21.1562 196.268 21.0573 195.867 20.8594C195.471 20.6562 195.164 20.3802 194.945 20.0312C194.727 19.6771 194.617 19.2734 194.617 18.8203C194.617 18.4297 194.706 18.0729 194.883 17.75C195.06 17.4271 195.315 17.151 195.648 16.9219C195.987 16.6875 196.396 16.5104 196.875 16.3906C197.359 16.2656 197.904 16.2031 198.508 16.2031H200.617ZM204.281 14.1719V24.25H203.656V12.5469H204.258L204.281 14.1719ZM210.266 16.6875V16.8516C210.266 17.4922 210.193 18.0755 210.047 18.6016C209.906 19.1276 209.698 19.5807 209.422 19.9609C209.151 20.3411 208.818 20.6354 208.422 20.8438C208.026 21.0521 207.576 21.1562 207.07 21.1562C206.586 21.1562 206.151 21.0859 205.766 20.9453C205.38 20.7995 205.047 20.5964 204.766 20.3359C204.484 20.0755 204.258 19.7786 204.086 19.4453C203.914 19.1068 203.794 18.7448 203.727 18.3594V15.4219C203.815 14.9792 203.948 14.5755 204.125 14.2109C204.307 13.8411 204.534 13.5208 204.805 13.25C205.081 12.974 205.406 12.763 205.781 12.6172C206.156 12.4661 206.581 12.3906 207.055 12.3906C207.56 12.3906 208.01 12.4922 208.406 12.6953C208.807 12.8932 209.146 13.1797 209.422 13.5547C209.698 13.9245 209.906 14.375 210.047 14.9062C210.193 15.4323 210.266 16.026 210.266 16.6875ZM209.633 16.8516V16.6875C209.633 16.1562 209.578 15.6641 209.469 15.2109C209.365 14.7578 209.203 14.3646 208.984 14.0312C208.766 13.6979 208.49 13.4375 208.156 13.25C207.823 13.0625 207.43 12.9688 206.977 12.9688C206.482 12.9688 206.062 13.0521 205.719 13.2188C205.375 13.3802 205.091 13.5911 204.867 13.8516C204.648 14.112 204.479 14.3932 204.359 14.6953C204.24 14.9922 204.151 15.2734 204.094 15.5391V18.3125C204.188 18.7292 204.354 19.1094 204.594 19.4531C204.833 19.7969 205.151 20.0729 205.547 20.2812C205.948 20.4844 206.43 20.5859 206.992 20.5859C207.445 20.5859 207.836 20.4922 208.164 20.3047C208.492 20.1172 208.766 19.8568 208.984 19.5234C209.203 19.1901 209.365 18.7969 209.469 18.3438C209.578 17.8854 209.633 17.388 209.633 16.8516ZM218.055 19.0469V12.5469H218.68V21H218.062L218.055 19.0469ZM218.164 17.6094L218.57 17.5938C218.57 18.1094 218.505 18.5833 218.375 19.0156C218.25 19.4479 218.052 19.8255 217.781 20.1484C217.516 20.4661 217.172 20.7135 216.75 20.8906C216.328 21.0677 215.823 21.1562 215.234 21.1562C214.823 21.1562 214.445 21.099 214.102 20.9844C213.763 20.8646 213.469 20.6771 213.219 20.4219C212.974 20.1667 212.784 19.8333 212.648 19.4219C212.518 19.0104 212.453 18.513 212.453 17.9297V12.5469H213.07V17.9453C213.07 18.4349 213.125 18.849 213.234 19.1875C213.349 19.526 213.505 19.7969 213.703 20C213.901 20.2031 214.133 20.3516 214.398 20.4453C214.664 20.5339 214.953 20.5781 215.266 20.5781C215.995 20.5781 216.57 20.4375 216.992 20.1562C217.419 19.875 217.721 19.5078 217.898 19.0547C218.076 18.6016 218.164 18.1198 218.164 17.6094ZM221.883 14.3516V21H221.266V12.5469H221.875L221.883 14.3516ZM221.766 16.125L221.461 15.7656C221.508 15.3177 221.617 14.8906 221.789 14.4844C221.966 14.0781 222.198 13.7188 222.484 13.4062C222.776 13.0938 223.115 12.8464 223.5 12.6641C223.891 12.4818 224.32 12.3906 224.789 12.3906C225.211 12.3906 225.589 12.4505 225.922 12.5703C226.255 12.6849 226.536 12.8672 226.766 13.1172C227 13.3672 227.177 13.6901 227.297 14.0859C227.417 14.4766 227.477 14.9531 227.477 15.5156V21H226.859V15.5156C226.859 14.849 226.768 14.3333 226.586 13.9688C226.404 13.599 226.148 13.3385 225.82 13.1875C225.497 13.0365 225.12 12.9609 224.688 12.9609C224.188 12.9609 223.755 13.0729 223.391 13.2969C223.031 13.5156 222.734 13.7943 222.5 14.1328C222.266 14.4661 222.086 14.8125 221.961 15.1719C221.841 15.5312 221.776 15.849 221.766 16.125Z" fill="white"/>
<path d="M34.0967 14.9575V16.3784C34.0967 17.0913 34.0015 17.7407 33.811 18.3267C33.6255 18.9126 33.3545 19.4155 32.998 19.8354C32.6416 20.2554 32.2144 20.5801 31.7163 20.8096C31.2183 21.0342 30.6567 21.1465 30.0317 21.1465C29.4214 21.1465 28.8647 21.0342 28.3618 20.8096C27.8589 20.5801 27.4268 20.2554 27.0654 19.8354C26.709 19.4155 26.4331 18.9126 26.2378 18.3267C26.0474 17.7407 25.9521 17.0913 25.9521 16.3784V14.9575C25.9521 14.2397 26.0474 13.5903 26.2378 13.0093C26.4331 12.4233 26.709 11.9204 27.0654 11.5005C27.4219 11.0806 27.8491 10.7583 28.3472 10.5337C28.8501 10.3042 29.4067 10.1895 30.0171 10.1895C30.6421 10.1895 31.2036 10.3042 31.7017 10.5337C32.1997 10.7583 32.627 11.0806 32.9834 11.5005C33.3447 11.9204 33.6206 12.4233 33.811 13.0093C34.0015 13.5903 34.0967 14.2397 34.0967 14.9575ZM33.5107 16.3784V14.9429C33.5107 14.3179 33.4326 13.749 33.2764 13.2363C33.1201 12.7188 32.8906 12.2744 32.5879 11.9033C32.29 11.5322 31.9263 11.2466 31.4966 11.0464C31.0669 10.8413 30.5737 10.7388 30.0171 10.7388C29.4751 10.7388 28.9893 10.8413 28.5596 11.0464C28.1299 11.2466 27.7661 11.5322 27.4683 11.9033C27.1704 12.2744 26.9434 12.7188 26.7871 13.2363C26.6309 13.749 26.5527 14.3179 26.5527 14.9429V16.3784C26.5527 17.0083 26.6309 17.582 26.7871 18.0996C26.9482 18.6172 27.1777 19.0615 27.4756 19.4326C27.7734 19.8037 28.1372 20.0918 28.5669 20.2969C29.0015 20.4971 29.4897 20.5972 30.0317 20.5972C30.5884 20.5972 31.0815 20.4971 31.5112 20.2969C31.9409 20.0918 32.3047 19.8037 32.6025 19.4326C32.9004 19.0615 33.125 18.6172 33.2764 18.0996C33.4326 17.582 33.5107 17.0083 33.5107 16.3784ZM36.8579 14.7671V21H36.2793V13.0752H36.8506L36.8579 14.7671ZM36.748 16.4297L36.4624 16.0928C36.5063 15.6729 36.6089 15.2725 36.77 14.8916C36.936 14.5107 37.1533 14.1738 37.4219 13.8809C37.6953 13.5879 38.0127 13.356 38.374 13.1851C38.7402 13.0142 39.1431 12.9287 39.5825 12.9287C39.978 12.9287 40.332 12.9849 40.6445 13.0972C40.957 13.2046 41.2207 13.3755 41.4355 13.6099C41.6553 13.8442 41.8213 14.147 41.9336 14.5181C42.0459 14.8843 42.1021 15.3311 42.1021 15.8584V21H41.5234V15.8584C41.5234 15.2334 41.438 14.75 41.2671 14.4082C41.0962 14.0615 40.8569 13.8174 40.5493 13.6758C40.2466 13.5342 39.8926 13.4634 39.4873 13.4634C39.0186 13.4634 38.6133 13.5684 38.2715 13.7783C37.9346 13.9834 37.6562 14.2446 37.4365 14.562C37.2168 14.8745 37.0483 15.1992 36.9312 15.5361C36.8188 15.873 36.7578 16.1709 36.748 16.4297ZM45.1929 9.75V21H44.6069V9.75H45.1929ZM48.4009 13.0752V21H47.8149V13.0752H48.4009ZM47.6318 10.6729C47.6318 10.541 47.6758 10.4287 47.7637 10.3359C47.8564 10.2383 47.9736 10.1895 48.1152 10.1895C48.252 10.1895 48.3667 10.2383 48.4595 10.3359C48.5522 10.4287 48.5986 10.541 48.5986 10.6729C48.5986 10.8047 48.5522 10.917 48.4595 11.0098C48.3667 11.0977 48.252 11.1416 48.1152 11.1416C47.9736 11.1416 47.8564 11.0977 47.7637 11.0098C47.6758 10.917 47.6318 10.8047 47.6318 10.6729ZM51.5063 14.7671V21H50.9277V13.0752H51.499L51.5063 14.7671ZM51.3965 16.4297L51.1108 16.0928C51.1548 15.6729 51.2573 15.2725 51.4185 14.8916C51.5845 14.5107 51.8018 14.1738 52.0703 13.8809C52.3438 13.5879 52.6611 13.356 53.0225 13.1851C53.3887 13.0142 53.7915 12.9287 54.231 12.9287C54.6265 12.9287 54.9805 12.9849 55.293 13.0972C55.6055 13.2046 55.8691 13.3755 56.084 13.6099C56.3037 13.8442 56.4697 14.147 56.582 14.5181C56.6943 14.8843 56.7505 15.3311 56.7505 15.8584V21H56.1719V15.8584C56.1719 15.2334 56.0864 14.75 55.9155 14.4082C55.7446 14.0615 55.5054 13.8174 55.1978 13.6758C54.895 13.5342 54.541 13.4634 54.1357 13.4634C53.667 13.4634 53.2617 13.5684 52.9199 13.7783C52.583 13.9834 52.3047 14.2446 52.085 14.562C51.8652 14.8745 51.6968 15.1992 51.5796 15.5361C51.4673 15.873 51.4062 16.1709 51.3965 16.4297ZM62.0972 21.1465C61.5991 21.1465 61.1377 21.0513 60.7129 20.8608C60.2881 20.6655 59.917 20.3945 59.5996 20.0479C59.2822 19.6963 59.0332 19.2812 58.8525 18.8027C58.6768 18.3242 58.5889 17.7993 58.5889 17.228V16.9058C58.5889 16.3149 58.6768 15.7778 58.8525 15.2944C59.0332 14.8062 59.2773 14.3862 59.585 14.0347C59.8926 13.6782 60.2466 13.4048 60.647 13.2144C61.0522 13.0239 61.4844 12.9287 61.9434 12.9287C62.4072 12.9287 62.8271 13.0142 63.2031 13.1851C63.5791 13.356 63.9014 13.5952 64.1699 13.9028C64.4385 14.2104 64.6436 14.5767 64.7852 15.0015C64.9268 15.4263 64.9976 15.895 64.9976 16.4077V16.8984H58.9551V16.3638H64.4189V16.2686C64.4141 15.7705 64.3115 15.3091 64.1113 14.8843C63.916 14.4595 63.6353 14.1177 63.269 13.8589C62.9028 13.5952 62.4609 13.4634 61.9434 13.4634C61.5283 13.4634 61.1499 13.5513 60.8081 13.7271C60.4712 13.9028 60.1807 14.147 59.9365 14.4595C59.6924 14.7671 59.5044 15.1309 59.3726 15.5508C59.2407 15.9658 59.1748 16.4175 59.1748 16.9058V17.228C59.1748 17.6968 59.248 18.1362 59.3945 18.5464C59.541 18.9565 59.7461 19.3179 60.0098 19.6304C60.2734 19.938 60.5835 20.1797 60.9399 20.3555C61.2964 20.5312 61.687 20.6191 62.1118 20.6191C62.5708 20.6191 62.9907 20.5386 63.3716 20.3774C63.7524 20.2163 64.0991 19.9331 64.4116 19.5278L64.7925 19.8135C64.6167 20.0674 64.4043 20.2944 64.1553 20.4946C63.9062 20.6948 63.6108 20.8535 63.269 20.9707C62.9321 21.0879 62.5415 21.1465 62.0972 21.1465Z" fill="white"/>
<g opacity="0.65">
<ellipse cx="11.5" cy="14.5" rx="10.9524" ry="12.5" fill="white"/>
<path d="M11.5 27C17.841 27 23 21.3923 23 14.5C23 7.60765 17.841 2 11.5 2C5.15857 2 0 7.60765 0 14.5C0 21.3923 5.15857 27 11.5 27ZM11.5 3.19031C17.2373 3.19031 21.9049 8.26347 21.9049 14.5C21.9049 20.7362 17.2376 25.8097 11.5 25.8097C5.76267 25.8097 1.09508 20.7363 1.09508 14.5C1.09508 8.26367 5.76258 3.19031 11.5 3.19031Z" fill="white"/>
<path d="M9.48496 22.2383C9.63 22.2383 9.76971 22.1757 9.87221 22.0639L19.5543 11.5399C19.6571 11.4285 19.7147 11.2772 19.7147 11.119C19.7147 10.9607 19.6571 10.8095 19.5543 10.6981L18.0045 9.01357C17.7904 8.78079 17.4444 8.78079 17.2302 9.01357L9.48534 17.4319L6.00089 13.6445C5.79553 13.4213 5.43194 13.4213 5.22658 13.6445L3.67685 15.329C3.4627 15.5618 3.4627 15.9379 3.67685 16.1706L9.09828 22.0635C9.20059 22.1755 9.34031 22.2381 9.48534 22.2381L9.48496 22.2383ZM5.61327 14.9071L9.09772 18.6946C9.20058 18.8064 9.33974 18.869 9.48496 18.869C9.63 18.869 9.76971 18.8064 9.87221 18.6946L17.6171 10.2762L18.3925 11.1191L9.48496 20.8012L4.83784 15.75L5.61327 14.9071Z" fill="black"/>
</g>
<g opacity="0.65">
<ellipse cx="86.5" cy="12.5" rx="10.9524" ry="12.5" fill="white"/>
<path d="M86.5 25C92.841 25 98 19.3923 98 12.5C98 5.60765 92.841 0 86.5 0C80.1586 0 75 5.60765 75 12.5C75 19.3923 80.1586 25 86.5 25ZM86.5 1.19031C92.2373 1.19031 96.9049 6.26347 96.9049 12.5C96.9049 18.7362 92.2376 23.8097 86.5 23.8097C80.7627 23.8097 76.0951 18.7363 76.0951 12.5C76.0951 6.26367 80.7626 1.19031 86.5 1.19031Z" fill="white"/>
<path d="M84.485 20.2383C84.63 20.2383 84.7697 20.1757 84.8722 20.0639L94.5543 9.5399C94.6571 9.42849 94.7147 9.27723 94.7147 9.11898C94.7147 8.96074 94.6571 8.80947 94.5543 8.69806L93.0045 7.01357C92.7904 6.78079 92.4444 6.78079 92.2302 7.01357L84.4853 15.4319L81.0009 11.6445C80.7955 11.4213 80.4319 11.4213 80.2266 11.6445L78.6769 13.329C78.4627 13.5618 78.4627 13.9379 78.6769 14.1706L84.0983 20.0635C84.2006 20.1755 84.3403 20.2381 84.4853 20.2381L84.485 20.2383ZM80.6133 12.9071L84.0977 16.6946C84.2006 16.8064 84.3397 16.869 84.485 16.869C84.63 16.869 84.7697 16.8064 84.8722 16.6946L92.6171 8.27623L93.3925 9.11908L84.485 18.8012L79.8378 13.75L80.6133 12.9071Z" fill="black"/>
</g>
<g opacity="0.65">
<ellipse cx="249.5" cy="12.5" rx="10.9524" ry="12.5" fill="white"/>
<path d="M249.5 25C255.841 25 261 19.3923 261 12.5C261 5.60765 255.841 0 249.5 0C243.159 0 238 5.60765 238 12.5C238 19.3923 243.159 25 249.5 25ZM249.5 1.19031C255.237 1.19031 259.905 6.26347 259.905 12.5C259.905 18.7362 255.238 23.8097 249.5 23.8097C243.763 23.8097 239.095 18.7363 239.095 12.5C239.095 6.26367 243.763 1.19031 249.5 1.19031Z" fill="white"/>
<path d="M247.485 20.2383C247.63 20.2383 247.77 20.1757 247.872 20.0639L257.554 9.5399C257.657 9.42849 257.715 9.27723 257.715 9.11898C257.715 8.96074 257.657 8.80947 257.554 8.69806L256.005 7.01357C255.79 6.78079 255.444 6.78079 255.23 7.01357L247.485 15.4319L244.001 11.6445C243.796 11.4213 243.432 11.4213 243.227 11.6445L241.677 13.329C241.463 13.5618 241.463 13.9379 241.677 14.1706L247.098 20.0635C247.201 20.1755 247.34 20.2381 247.485 20.2381L247.485 20.2383ZM243.613 12.9071L247.098 16.6946C247.201 16.8064 247.34 16.869 247.485 16.869C247.63 16.869 247.77 16.8064 247.872 16.6946L255.617 8.27623L256.393 9.11908L247.485 18.8012L242.838 13.75L243.613 12.9071Z" fill="black"/>
</g>
<g opacity="0.65">
<ellipse cx="352.5" cy="12.5" rx="10.9524" ry="12.5" fill="white"/>
<path d="M352.5 25C358.841 25 364 19.3923 364 12.5C364 5.60765 358.841 0 352.5 0C346.159 0 341 5.60765 341 12.5C341 19.3923 346.159 25 352.5 25ZM352.5 1.19031C358.237 1.19031 362.905 6.26347 362.905 12.5C362.905 18.7362 358.238 23.8097 352.5 23.8097C346.763 23.8097 342.095 18.7363 342.095 12.5C342.095 6.26367 346.763 1.19031 352.5 1.19031Z" fill="white"/>
<path d="M350.485 20.2383C350.63 20.2383 350.77 20.1757 350.872 20.0639L360.554 9.5399C360.657 9.42849 360.715 9.27723 360.715 9.11898C360.715 8.96074 360.657 8.80947 360.554 8.69806L359.005 7.01357C358.79 6.78079 358.444 6.78079 358.23 7.01357L350.485 15.4319L347.001 11.6445C346.796 11.4213 346.432 11.4213 346.227 11.6445L344.677 13.329C344.463 13.5618 344.463 13.9379 344.677 14.1706L350.098 20.0635C350.201 20.1755 350.34 20.2381 350.485 20.2381L350.485 20.2383ZM346.613 12.9071L350.098 16.6946C350.201 16.8064 350.34 16.869 350.485 16.869C350.63 16.869 350.77 16.8064 350.872 16.6946L358.617 8.27623L359.393 9.11908L350.485 18.8012L345.838 13.75L346.613 12.9071Z" fill="black"/>
</g>
</svg>
